<svg width="380" height="240" xmlns="http://www.w3.org/2000/svg">
 <!-- Created with Method Draw - http://github.com/duopixel/Method-Draw/ -->
 <defs>
  <filter id="svg_5_blur" x="-50%" y="-50%" width="200%" height="200%">
   <feGaussianBlur stdDeviation="0"/>
  </filter>
 </defs>
 <g>
  <title>background</title>
  <rect x="-1" y="-1" width="382" height="242" id="canvas_background" fill="none"/>
  <g id="canvasGrid" display="none">
   <rect id="svg_1" width="640" height="480" x="1" y="1" stroke-width="0" fill="url(#gridpattern)"/>
  </g>
 </g>
 <g>
  <title>Layer 1</title>
  <path fill="#5B9BA2" stroke-width="0" stroke-opacity="null" d="m204.97204,11.57829c-6.44931,2.38751 -12.33443,5.57046 -18.26657,8.40747c-2.02166,0.96606 -4.31835,2.50164 -6.19189,2.97114c-4.7744,1.19199 -12.24512,-0.89311 -18.33122,-1.1108c-15.21176,-0.54009 -25.06027,0.58011 -37.56514,2.46753c-5.8522,0.88134 -11.91128,1.70737 -17.0477,3.21472c-4.38769,1.28848 -9.41831,4.16784 -14.32787,6.58948c-7.75868,3.82777 -13.04319,7.43197 -19.09286,12.04696c-10.1118,7.70852 -16.47764,17.41268 -23.87666,28.07469c-3.23112,4.65382 -7.88445,11.58806 -8.11599,17.09499c-4.27722,6.48946 -10.77589,10.45138 -12.40614,19.95081c2.27906,5.55516 8.18535,0.61541 11.74439,-1.23435c2.94315,-1.53441 6.10962,-3.36769 8.71779,-4.10312c13.55565,-3.82544 32.44636,1.64266 45.64469,-1.86271c4.67801,-1.24141 8.73072,-3.74777 13.37816,-4.80914c4.41356,-1.01078 7.78925,0.77897 10.93574,2.13923c1.67138,0.72484 3.43211,1.7062 4.95069,2.48635c9.83323,5.08684 19.66175,10.47961 32.86361,12.51058c10.59605,1.62737 19.80163,-1.47793 28.41481,-3.15588c2.18619,-0.42714 5.01063,-0.27181 6.66909,-2.14041c-6.87479,-1.55441 -12.58008,-4.20549 -19.7593,-7.03544c-9.43006,-3.71363 -16.75504,-6.22588 -20.31878,-13.6814c4.22078,-1.10608 9.10919,-0.28593 13.50276,0.48481c4.79789,0.83779 9.55936,1.62501 14.16332,2.38279c19.4396,3.20414 34.08013,8.58279 48.87816,15.56058c7.18862,3.38535 13.81305,8.10269 19.90621,12.06227c12.47902,8.11917 23.13147,18.20106 33.17862,29.18431c4.54755,4.9727 8.60965,11.19975 13.54154,17.13499c2.15565,2.5946 4.32305,5.48927 6.6268,8.6934c2.20148,3.0441 5.56072,6.77539 6.02616,9.43824c0.52423,2.94056 -1.03551,6.16469 -1.82065,9.37823c-1.35757,5.58223 -2.35899,11.57041 -1.90412,17.30209c0.59474,7.41316 2.24967,14.63334 5.7194,20.24968c1.50565,-1.34025 2.12038,-3.69951 2.89613,-5.85993c3.80353,-4.86679 8.86354,-9.7277 8.9893,-17.82687c10.38918,5.37512 30.56927,4.92445 42.68508,4.78442c3.64251,-0.04236 7.35317,0.3436 10.37038,-1.07431c-6.36351,-3.69246 -11.03446,-8.36511 -16.56581,-13.13542c-8.36869,-7.20723 -15.29051,-13.27896 -27.62729,-17.13498c-3.99864,-1.24965 -8.57674,-1.92625 -10.76765,-4.24198c-1.68431,-1.7721 -2.19679,-5.69754 -3.05129,-9.47825c-2.29786,-10.22192 -5.28568,-21.06749 -7.95144,-29.67029c-7.99963,-25.85898 -20.20947,-48.84094 -36.45439,-66.68901c-8.23236,-9.05112 -18.06324,-16.42191 -28.6628,-24.61757c-1.81126,-2.84289 -5.20458,-6.67772 -5.90511,-11.01266c-0.71699,-4.46319 0.57593,-8.38039 3.33103,-11.37862c6.02734,-4.40317 15.49737,-4.89032 19.59239,-11.48097c-5.35385,-3.85837 -11.99709,-4.98917 -18.51574,-5.61988c-14.08222,-1.36379 -27.27587,-0.30477 -38.19984,3.74423z" id="svg_6" filter="url(#svg_5_blur)" stroke="#000"/>
  <path fill="#84D3DB" stroke-width="0" stroke-opacity="null" d="m114.76436,92.66851c-4.39536,1.70143 -8.40621,3.96972 -12.44911,5.99148c-1.37781,0.68846 -2.94306,1.78277 -4.21993,2.11735c-3.25387,0.84946 -8.34534,-0.63646 -12.49318,-0.79159c-10.36719,-0.3849 -17.07918,0.41341 -25.60155,1.75845c-3.98843,0.62808 -8.11784,1.21675 -11.61843,2.29093c-2.99032,0.91822 -6.41881,2.97017 -9.7648,4.69592c-5.28773,2.72782 -8.88925,5.29632 -13.01226,8.58514c-6.89143,5.49338 -11.22992,12.40895 -16.27252,20.00711c-2.20209,3.31649 -5.37345,8.2581 -5.53125,12.18254c-2.91503,4.62464 -7.34403,7.44806 -8.45509,14.21772c1.55324,3.95883 5.57852,0.43857 8.00409,-0.87964c2.00583,-1.09348 4.16386,-2.39995 5.94139,-2.92405c9.23851,-2.72614 22.11298,1.17063 31.10798,-1.32743c3.18817,-0.88468 5.95019,-2.6708 9.11755,-3.42718c3.00794,-0.72032 5.30855,0.55512 7.45296,1.52449c1.1391,0.51655 2.33907,1.21591 3.37402,1.77187c6.70159,3.62508 13.39997,7.46818 22.39736,8.91553c7.22147,1.15973 13.49529,-1.05322 19.36538,-2.24901c1.48996,-0.30439 3.41488,-0.1937 4.54516,-1.52533c-4.68534,-1.10773 -8.57364,-2.997 -13.46645,-5.01373c-6.42682,-2.64648 -11.41897,-4.4368 -13.84775,-9.74989c2.87657,-0.78824 6.20814,-0.20377 9.20246,0.34549c3.26989,0.59705 6.51494,1.15804 9.65265,1.69807c13.24857,2.28339 23.22645,6.11643 33.31167,11.08907c4.89922,2.41253 9.41393,5.7743 13.56658,8.59604c8.50474,5.78603 15.76466,12.97079 22.61203,20.79787c3.09927,3.54374 5.86769,7.98138 9.2289,12.21105c1.46913,1.84902 2.94626,3.91187 4.51632,6.19526c1.50037,2.16934 3.78977,4.8284 4.10698,6.72605c0.35727,2.09556 -0.70572,4.3932 -1.24082,6.6833c-0.92522,3.97811 -1.60771,8.24552 -1.29771,12.33013c0.40534,5.2829 1.53321,10.42828 3.89791,14.43071c1.02615,-0.95511 1.4451,-2.63642 1.97379,-4.17601c2.5922,-3.46827 6.04072,-6.93234 6.12643,-12.70413c7.08048,3.83053 20.83371,3.50936 29.09093,3.40957c2.48245,-0.03018 5.01137,0.24486 7.06766,-0.7656c-4.33688,-2.63139 -7.52025,-5.96129 -11.28999,-9.3608c-5.70348,-5.13616 -10.42086,-9.46311 -18.82868,-12.21105c-2.72517,-0.89055 -5.84526,-1.37272 -7.33842,-3.023c-1.14791,-1.26287 -1.49716,-4.06029 -2.07953,-6.75457c-1.56605,-7.28454 -3.60232,-15.01351 -5.4191,-21.14419c-5.45195,-18.42811 -13.77325,-34.80595 -24.84456,-47.52517c-5.61056,-6.45018 -12.31054,-11.70289 -19.53441,-17.54344c-1.23441,-2.02595 -3.54704,-4.7588 -4.02447,-7.84804c-0.48864,-3.18065 0.39251,-5.9722 2.27017,-8.10884c4.10779,-3.13788 10.56185,-3.48504 13.35271,-8.18179c-3.64879,-2.74963 -8.17632,-3.55548 -12.61894,-4.00495c-9.59738,-0.97188 -18.58917,-0.21718 -26.03413,2.66829z" id="svg_5" filter="url(#svg_5_blur)" transform="rotate(-28.719655990600586 113.24996948242183,169.7703704833984) " stroke="#000"/>
 </g>
</svg>